# AST/ASF file generated using VICON BodyLanguage
# -----------------------------------------------
:version 1.10
:name VICON
:units
  mass 1.0
  length 0.45
  angle deg
:documentation
   .ast/.asf automatically generated from VICON data using
   VICON BodyBuilder and BodyLanguage model FoxedUp or BRILLIANT.MOD
:root
   order TX TY TZ RX RY RZ
   axis XYZ
   position 0 0 0  
   orientation 0 0 0 
:bonedata
  begin
     id 1 
     name lhipjoint
     direction 0.734343 -0.627749 0.258209 
     length 2.5437 
     axis 0 0 0  XYZ
  end
  begin
     id 2 
     name lfemur
     direction 0.34202 -0.939693 0  
     length 6.7391  
     axis 0 0 20  XYZ
    dof rx ry rz
    limits (-160.0 20.0)
           (-70.0 70.0)
           (-60.0 70.0)
  end
  begin
     id 3 
     name ltibia
     direction 0.34202 -0.939693 0   
     length 7.21536   
     axis 0 0 20   XYZ
    dof rx
    limits (-10.0 170.0)
  end
  begin
     id 4 
     name lfoot
     direction 0.0489572 -0.134509 0.989702   
     length 1.61313   
     axis -90 7.62852e-016 20   XYZ
    dof rx rz
    limits (-45.0 90.0)
           (-70.0 20.0)
  end
  begin
     id 5 
     name ltoes
     direction 1.53451e-011 -4.21692e-011 1   
     length 0.823104   
     axis -90 7.62852e-016 20   XYZ
    dof rx
    limits (-90.0 20.0)
  end
  begin
     id 6 
     name rhipjoint
     direction -0.746398 -0.615468 0.253157   
     length 2.59446  
     axis 0 0 0  XYZ 
  end
  begin
     id 7 
     name rfemur
     direction -0.34202 -0.939693 0   
     length 6.7075   
     axis 0 0 -20   XYZ
    dof rx ry rz
    limits (-160.0 20.0)
           (-70.0 70.0)
           (-70.0 60.0)
  end
  begin
     id 8 
     name rtibia
     direction -0.34202 -0.939693 0   
     length 7.27262   
     axis 0 0 -20   XYZ
    dof rx
    limits (-10.0 170.0)
 end
 begin
     id 9 
     name rfoot
     direction -0.0455203 -0.125066 0.991104   
     length 1.91095  
     axis -90 -7.62852e-016 -20   XYZ
    dof rx rz
    limits (-45.0 90.0)
           (-20.0 70.0)
  end
  begin
     id 10 
     name rtoes
     direction -1.53601e-011 -4.21913e-011 1   
     length 0.969037   
     axis -90 -7.62852e-016 -20   XYZ
    dof rx
    limits (-90.0 20.0)
  end
  begin
     id 11 
     name lowerback
     direction 0.0181546 0.999122 -0.0377542   
     length 1.99916   
     axis 0 0 0   XYZ
    dof rx ry rz
    limits (-20.0 45.0)
           (-30.0 30.0)
           (-30.0 30.0)
  end
  begin
     id 12 
     name upperback
     direction 0.0203486 0.99589 0.0882534   
     length 1.951   
     axis 0 0 0   XYZ
    dof rx ry rz
    limits (-20.0 45.0)
           (-30.0 30.0)
           (-30.0 30.0)
  end
  begin
     id 13 
     name thorax
     direction 0.0131685 0.994241 0.106355   
     length 1.97461   
     axis 0 0 0   XYZ
    dof rx ry rz
    limits (-20.0 45.0)
           (-30.0 30.0)
           (-30.0 30.0)
  end
  begin
     id 14 
     name lowerneck
     direction -0.0281395 0.999325 0.023617   
     length 1.7959   
     axis 0 0 0   XYZ
    dof rx ry rz
    limits (-20.0 45.0)
           (-30.0 30.0)
           (-30.0 30.0)
  end
  begin
     id 15 
     name upperneck
     direction 0.0288721 0.991984 -0.123019   
     length 1.79917   
     axis 0 0 0   XYZ
    dof rx ry rz
    limits (-20.0 45.0)
           (-30.0 30.0)
           (-30.0 30.0)
  end
  begin
     id 16
     name head
     direction 0.0133797 0.998944 -0.0439492  
     length 1.80902  
     axis 0 0 0   XYZ
    dof rx ry rz
    limits (-20.0 45.0)
           (-30.0 30.0)
           (-30.0 30.0)
  end
  begin
     id 17 
     name lclavicle
     direction 0.919195 0.377107 0.113449  
     length 3.17815  
     axis 0 0 0   XYZ
    dof ry rz
    limits (-20.0 10.0)
           (0.0 20.0)
  end
  begin
     id 18 
     name lhumerus
     direction 1 -4.48959e-011 2.13129e-027   
     length 4.84137   
     axis 180 -30 -90   XYZ
    dof rx ry rz
    limits (-60.0 90.0)
           (-90.0 90.0)
           (-90.0 90.0)
  end
  begin
     id 19
     name lradius
     direction 1 -4.48957e-011 -6.30627e-028   
     length 3.2452   
     axis 180 -30 -90   XYZ
    dof rx
    limits (-10.0 170.0)
  end
  begin
     id 20
     name lwrist
     direction 1 -4.4901e-011 9.13299e-027   
     length 1.6226   
     axis -6.84618e-015 90 90   XYZ
    dof ry
    limits (-180.0 0.0)
 end
  begin
     id 21 
     name lhand
     direction 1 -4.48816e-011 1.82293e-026   
     length 0.521221   
     axis -1.16502e-014 90 90   XYZ
    dof rx rz
    limits (-90.0 90.0)
           (-45.0 45.0)
  end
  begin
     id 22 
     name lfingers
     direction 1 -4.49108e-011 3.65687e-026   
     length 0.420221   
     axis -2.33008e-014 90 90   XYZ
    dof rx
    limits (0.0 90.0)
  end
  begin
     id 23
     name lthumb
     direction 0.707107 -6.34943e-011 0.707107   
     length 0.603356   
     axis -90 45 5.69224e-014   XYZ
    dof rx rz
    limits (-45.0 45.0)
           (-45.0 45.0)
  end
  begin
     id 24 
     name rclavicle
     direction -0.90847 0.38596 0.160368   
     length 3.12973  
     axis 0 0 0   XYZ 
    dof ry rz
    limits (-10.0 20.0)
           (-20.0 0.0)
  end
  begin
     id 25 
     name rhumerus
     direction -1 -4.48974e-011 4.47268e-028  
     length 4.72284   
     axis 180 30 90   XYZ
    dof rx ry rz
    limits (-90.0 60.0)
           (-90.0 90.0)
           (-90.0 90.0)
  end
  begin
     id 26 
     name rradius
     direction -1 -4.48969e-011 3.43203e-027   
     length 3.23459   
     axis 180 30 90   XYZ
    dof rx
    limits (-10.0 170.0)
  end
  begin
     id 27 
     name rwrist
     direction -1 -4.48969e-011 9.12911e-027   
     length 1.6173   
     axis -6.84618e-015 -90 -90   XYZ
    dof ry
    limits (-180.0 0.0)
  end
  begin
     id 28
     name rhand
     direction -1 -4.49194e-011 1.83006e-026   
     length 0.307416   
     axis -1.16502e-014 -90 -90   XYZ
    dof rx rz
    limits (-90.0 90.0)
           (-45.0 45.0)
  end
  begin
     id 29
     name rfingers
     direction -1 -4.48423e-011 3.63103e-026   
     length 0.247847   
     axis -2.33008e-014 -90 -90   XYZ
    dof rx
    limits (0.0 90.0)
  end
  begin
     id 30
     name rthumb
     direction -0.707107 -6.34802e-011 0.707107   
     length 0.35586   
     axis -90 -45 -5.69224e-014   XYZ
    dof rx rz
    limits (-45.0 45.0)
           (-45.0 45.0)
  end
:hierarchy
  begin
    root lhipjoint rhipjoint lowerback
    lhipjoint lfemur
    lfemur ltibia
    ltibia lfoot
    lfoot ltoes
    rhipjoint rfemur
    rfemur rtibia
    rtibia rfoot
    rfoot rtoes
    lowerback upperback
    upperback thorax
    thorax lowerneck lclavicle rclavicle
    lowerneck upperneck
    upperneck head
    lclavicle lhumerus
    lhumerus lradius
    lradius lwrist
    lwrist lhand lthumb
    lhand lfingers
    rclavicle rhumerus
    rhumerus rradius
    rradius rwrist
    rwrist rhand rthumb
    rhand rfingers
  end

#!OML:ASF H:\Terrain\Patient Classification 1\Animal1\Tuesday\Animal1.ASF
:FULLY-SPECIFIED
:DEGREES
516
root 9.5283 15.9154 -19.183 17.1558 -28.8279 2.37441
lowerback 10.2442 -0.90205 -2.79594
upperback 2.87307 -1.55637 -1.49309
thorax -2.71853 -0.774797 0.218164
lowerneck 1.42732 -2.92905 -10.8869
upperneck -16.2034 -1.42309 26.092
head -4.49892 -1.75677 10.5864
rclavicle 3.35946e-014 7.15625e-015
rhumerus -16.7034 -15.9426 -61.3932
rradius 121.039
rwrist 2.21496
rhand 25.5583 3.84278
rfingers 7.12502
rthumb 49.6733 -17.5498
lclavicle 3.35946e-014 7.15625e-015
lhumerus -15.748 -5.72038 90.9119
lradius 106.94
lwrist -50.1573
lhand 28.3707 42.4707
lfingers 7.12502
lthumb 52.2363 62.435
rfemur -43.5673 6.48718 14.5799
rtibia 36.7174
rfoot -5.60184 -23.3441
rtoes -5.38031
lfemur -32.3523 -10.672 -10.5961
ltibia 32.0943
lfoot -17.9396 8.30275
ltoes -24.6772
517
root 9.52359 15.9187 -19.186 17.1664 -29.0195 2.35159
lowerback 10.3795 -0.750648 -2.71531
upperback 2.90308 -1.353 -1.48438
thorax -2.76825 -0.674192 0.159097
lowerneck 1.422 -3.01093 -10.7832
upperneck -16.3247 -1.53137 25.9111
head -4.51746 -1.81033 10.5046
rclavicle -1.88845e-014 -2.98177e-014
rhumerus -17.7045 -15.8299 -63.4665
rradius 122.36
rwrist 1.61766
rhand 26.7203 3.72354
rfingers 7.12502
rthumb 50.7357 -17.1041
lclavicle -1.88845e-014 -2.98177e-014
lhumerus -15.864 -5.78886 90.7656
lradius 106.994
lwrist -50.1949
lhand 28.1793 42.2954
lfingers 7.12502
lthumb 52.0629 62.3636
rfemur -43.5922 6.52247 14.6407
rtibia 36.7252
rfoot -5.58023 -23.2829
rtoes -5.50719
lfemur -32.2452 -10.6526 -10.5695
ltibia 31.998
lfoot -18.0305 8.47953
ltoes -24.9888
518
root 9.51969 15.9148 -19.191 17.1706 -29.1284 2.27441
lowerback 10.6283 -0.711951 -2.55074
upperback 2.91195 -1.29423 -1.47721
thorax -2.9009 -0.644372 0.0707223
lowerneck 1.35456 -3.06371 -10.6351
upperneck -16.3018 -1.62031 25.7179
head -4.48799 -1.84632 10.3991
rclavicle -1.21259e-014 -3.53837e-014
rhumerus -18.4817 -15.6355 -65.523
rradius 123.531
rwrist 0.829429
rhand 26.4662 3.13118
rfingers 7.12502
rthumb 50.5038 -17.823
lclavicle -1.21259e-014 -3.53837e-014
lhumerus -15.8853 -5.6894 90.4108
lradius 106.975
lwrist -50.0695
lhand 28.1201 42.244
lfingers 7.12502
lthumb 52.0091 62.3442
rfemur -43.5904 6.5763 14.7437
rtibia 36.7268
rfoot -5.61028 -23.2804
rtoes -5.55038
lfemur -32.1755 -10.6159 -10.4771
ltibia 31.9595
lfoot -17.7949 8.52447
ltoes -25.4336
519
root 9.518 15.9143 -19.194 17.2306 -29.2406 2.21399
lowerback 10.7588 -0.765062 -2.45894
upperback 2.91083 -1.35649 -1.40004
thorax -2.97294 -0.674719 0.109344
lowerneck 1.25352 -2.98954 -10.7192
upperneck -16.1591 -1.54184 25.7022
head -4.44202 -1.78913 10.3981
rclavicle -1.25234e-014 -2.38542e-015
rhumerus -18.8223 -15.2993 -67.5784
rradius 124.34
rwrist 0.563312
rhand 26.1937 3.69077
rfingers 7.12502
rthumb 50.2548 -17.3971
lclavicle -1.25234e-014 -2.38542e-015
lhumerus -15.8354 -5.19458 90.0493
lradius 107.038
lwrist -49.8088
lhand 28.7701 41.9254
lfingers 7.12502
lthumb 52.5979 61.669
rfemur -43.6628 6.57104 14.8251
rtibia 36.7048
rfoot -5.49182 -23.1466
rtoes -5.74232
lfemur -32.1912 -10.581 -10.4071
ltibia 31.9639
lfoot -17.6043 8.56735
ltoes -25.4284
520
root 9.51887 15.9115 -19.1914 17.2761 -29.4369 2.25703
lowerback 10.6985 -0.786468 -2.48857
upperback 2.94127 -1.38155 -1.30538
thorax -2.90451 -0.687991 0.22605
lowerneck 1.30782 -2.90508 -10.8695
upperneck -16.1523 -1.4357 25.6954
head -4.469 -1.73041 10.4261
rclavicle -2.78299e-015 5.28767e-014
rhumerus -18.9432 -14.8341 -69.3887
rradius 124.946
rwrist 0.342724
rhand 25.1921 4.97848
rfingers 7.12502
rthumb 49.3374 -16.5853
lclavicle -2.78299e-015 5.28767e-014
lhumerus -15.8862 -4.70838 89.8707
lradius 107.129
lwrist -49.8578
lhand 29.0106 41.4133
lfingers 7.12502
lthumb 52.8152 61.022
rfemur -43.7584 6.52735 14.806
rtibia 36.6613
rfoot -5.20863 -23.0175
rtoes -6.20878
lfemur -32.2397 -10.5226 -10.4843
ltibia 32.0369
lfoot -17.6898 8.72513
ltoes -25.372
521
root 9.51851 15.9088 -19.1932 17.2371 -29.6012 2.23878
lowerback 10.8495 -0.731926 -2.43884
upperback 2.99183 -1.30648 -1.23843
thorax -2.93607 -0.651275 0.259922
lowerneck 1.30387 -2.96181 -10.9726
upperneck -16.0986 -1.53046 25.7105
head -4.43057 -1.7688 10.4485
rclavicle -5.56597e-014 -9.54166e-015
rhumerus -19.0209 -14.5706 -70.9218
rradius 125.449
rwrist 0.0290614
rhand 22.5222 6.0223
rfingers 7.12502
rthumb 46.8771 -16.6979
lclavicle -5.56597e-014 -9.54166e-015
lhumerus -15.9753 -4.64923 89.7356
lradius 107.057
lwrist -50.4494
lhand 28.1124 41.0007
lfingers 7.12502
lthumb 52.0021 61.1051
rfemur -43.7064 6.58751 14.8271
rtibia 36.6016
rfoot -5.19273 -22.9236
rtoes -6.64393
lfemur -32.1889 -10.5354 -10.487
ltibia 32.1282
lfoot -17.7634 8.96871
ltoes -25.7156
522
root 9.51785 15.9085 -19.1961 17.4091 -29.7532 1.96496
lowerback 10.9509 -0.638693 -2.15542
upperback 3.01448 -1.15132 -1.12179
thorax -2.97497 -0.57532 0.202728
lowerneck 1.21345 -3.04422 -11.0121
upperneck -16.0195 -1.66155 25.6851
head -4.36336 -1.82005 10.4389
rclavicle -1.31198e-014 2.38542e-015
rhumerus -18.8214 -14.3619 -72.3925
rradius 125.623
rwrist 0.396724
rhand 19.6111 6.60091
rfingers 7.12502
rthumb 44.1726 -17.2173
lclavicle -1.31198e-014 2.38542e-015
lhumerus -15.9887 -4.6444 89.5473
lradius 106.934
lwrist -50.8575
lhand 27.6451 40.8572
lfingers 7.12502
lthumb 51.5779 61.2102
rfemur -43.7702 6.75587 15.0568
rtibia 36.5612
rfoot -5.20145 -22.8436
rtoes -7.3163
lfemur -32.2344 -10.5678 -10.1916
ltibia 32.2264
lfoot -17.7647 9.24931
ltoes -25.8037
523
root 9.51861 15.9047 -19.2012 17.5519 -29.9217 1.96997
lowerback 10.7988 -0.551676 -2.12414
upperback 3.0826 -1.02522 -1.06212
thorax -2.82233 -0.515062 0.227956
lowerneck 1.04283 -3.07415 -11.0517
upperneck -15.9615 -1.70066 25.7398
head -4.30413 -1.82775 10.4586
rclavicle -8.34896e-015 -9.34288e-015
rhumerus -18.3685 -13.9599 -73.7342
rradius 125.545
rwrist 1.08742
rhand 16.715 7.28572
rfingers 7.12502
rthumb 41.4635 -17.4815
lclavicle -8.34896e-015 -9.34288e-015
lhumerus -15.7404 -4.63576 89.2908
lradius 106.861
lwrist -50.8596
lhand 27.8753 40.9837
lfingers 7.12502
lthumb 51.7869 61.2151
rfemur -43.9807 6.81026 15.037
rtibia 36.5207
rfoot -5.03833 -22.775
rtoes -7.66094
lfemur -32.417 -10.5635 -10.1547
ltibia 32.3241
lfoot -17.8295 9.3371
ltoes -24.6601
524
root 9.51974 15.8999 -19.2122 17.4399 -29.9685 2.18785
lowerback 10.8632 -0.51921 -2.26989
upperback 3.20176 -0.998596 -1.05761
thorax -2.73157 -0.50373 0.311053
lowerneck 0.770207 -3.1161 -11.1078
upperneck -15.7918 -1.75766 25.9276
head -4.18575 -1.84028 10.522
rclavicle 8.18993e-014 -6.36111e-015
rhumerus -17.8098 -13.5191 -74.7777
rradius 125.389
rwrist 1.5632
rhand 13.8953 8.68989
rfingers 7.12502
rthumb 38.8108 -16.8841
lclavicle 8.18993e-014 -6.36111e-015
lhumerus -15.3493 -4.87007 89.0955
lradius 106.901
lwrist -50.8309
lhand 27.3032 41.5581
lfingers 7.12502
lthumb 51.2669 62.0893
rfemur -44.016 6.74338 14.8686
rtibia 36.4808
rfoot -4.88751 -22.5533
rtoes -7.18084
lfemur -32.4844 -10.5827 -10.34
ltibia 32.389
lfoot -17.9466 9.28697
ltoes -24.4751
525
root 9.52022 15.8991 -19.2179 17.4466 -30.1063 2.0943
lowerback 11.1158 -0.434 -2.11884
upperback 3.22279 -0.878451 -1.06721
thorax -2.8534 -0.44385 0.203296
lowerneck 0.856134 -3.18561 -10.9748
upperneck -15.9355 -1.81906 26.0225
head -4.23114 -1.89737 10.5426
rclavicle -5.26779e-014 -4.96962e-015
rhumerus -17.2539 -13.1007 -75.6142
rradius 125.155
rwrist 2.12403
rhand 11.4898 9.74296
rfingers 7.12502
rthumb 36.5379 -16.4396
lclavicle -5.26779e-014 -4.96962e-015
lhumerus -15.0578 -4.9026 88.851
lradius 106.765
lwrist -51.0406
lhand 26.8792 41.4266
lfingers 7.12502
lthumb 50.8806 62.1744
rfemur -44.006 6.83838 14.9487
rtibia 36.4367
rfoot -4.80124 -22.1006
rtoes -7.17993
lfemur -32.4364 -10.5067 -10.2776
ltibia 32.4154
lfoot -18.0472 9.2611
ltoes -24.9585
